<svg width="1024" height="1024" viewBox="0 0 1024 1024" fill="none" xmlns="http://www.w3.org/2000/svg">
<g clip-path="url(#clip0_1_8)">
<path d="M765.02 759.318H722.381C695.945 759.318 678.548 740.549 678.548 719.392C678.548 707.619 683.665 693.969 697.821 687.827C654.329 671.959 628.575 643.635 620.9 600.297C589.006 620.26 538.692 623.161 487.525 617.189C488.549 647.048 493.154 692.945 493.154 712.908C493.154 743.279 476.951 760 447.445 760H410.604C380.416 760 363.531 740.549 363.531 716.321C363.531 700.453 370.694 681.172 397.983 671.617C396.789 652.678 384.509 601.833 377.687 582.382C366.43 550.305 344.94 521.299 344.94 478.302C344.94 457.315 340.165 447.078 336.242 438.376C320.892 447.59 307.418 451.344 292.58 451.344C254.375 451.344 216 410.906 216 369.786C216 347.605 248.065 332.078 266.143 320.817C286.61 306.997 301.449 288.74 321.233 279.015L327.885 305.12C313.387 313.481 301.107 329.348 282.005 341.463C262.05 354.601 245.165 358.354 245.165 373.198C245.165 395.379 268.702 421.997 292.58 421.997C305.371 421.997 315.946 418.243 334.025 405.787C341.359 400.669 348.693 401.863 353.127 408.517C368.989 431.893 374.105 450.32 374.105 478.302C374.105 510.55 392.696 534.437 405.999 574.363C413.163 596.202 427.489 654.385 427.489 678.272C427.489 684.244 425.102 689.192 418.279 691.58C396.619 696.528 392.867 707.619 392.867 714.785C392.867 724.51 399.348 729.97 410.604 729.97H446.251C457.848 729.97 463.647 723.657 463.647 711.714C463.647 670.082 455.802 613.265 455.802 593.131C455.802 584.429 463.477 579.822 472.687 582.723C530.846 601.833 592.588 590.06 627.893 562.59C636.25 555.935 646.313 560.883 646.313 570.268C646.313 627.767 674.455 655.75 735.684 670.935C746.77 673.836 746.77 690.386 735.684 692.263C717.776 695.334 707.884 703.183 707.884 714.785C707.884 724.169 715.218 729.97 725.451 729.97H761.779C772.183 729.97 778.835 722.634 778.835 711.714V669.058C778.835 651.143 772.183 640.394 744.724 618.554C721.869 600.297 715.9 577.093 715.9 525.906C715.9 498.094 712.489 469.088 701.402 453.05L731.25 418.755C741.483 406.982 725.963 394.868 716.07 406.47L687.417 440.083C683.153 437.011 677.525 435.135 670.532 434.793L482.579 419.096C406.341 392.479 409.581 357.501 384.168 330.202L401.565 306.826C442.498 345.216 434.482 370.127 488.378 390.09L663.88 404.764C670.361 405.446 675.819 406.129 680.424 407.152L696.968 387.19C727.327 351.018 785.487 394.526 752.058 434.452L734.49 455.268C741.483 476.084 745.235 499.118 745.235 525.906C745.235 572.486 748.646 584.429 762.632 595.69C794.867 621.113 808 640.735 808 669.058V714.785C808 741.061 790.262 759.318 765.02 759.318ZM365.066 359.719C331.296 359.719 313.729 302.049 313.729 286.352C313.729 272.19 321.233 264.682 335.389 264.682H394.402C408.728 264.682 416.233 272.19 416.233 286.352C416.233 302.049 398.495 359.719 365.066 359.719ZM365.066 333.955C377.517 333.955 387.238 306.826 389.114 294.541C389.455 291.982 387.92 290.447 385.192 290.447H344.429C341.87 290.447 340.335 291.982 340.676 294.541C342.553 306.826 352.274 333.955 365.066 333.955ZM308.612 372.516C300.255 372.516 293.432 365.52 293.432 356.989C293.432 348.458 300.255 341.633 308.612 341.633C317.31 341.633 324.133 348.458 324.133 356.989C324.133 365.52 317.31 372.516 308.612 372.516Z" fill="black" fill-opacity="0.85"/>
</g>
<defs>
<clipPath id="clip0_1_8">
<rect width="592" height="496" fill="white" transform="matrix(-1 0 0 1 808 264)"/>
</clipPath>
</defs>
</svg>
